<?xml version="1.0" encoding="utf-8"?>
<!-- Generator: Adobe Illustrator 25.4.1, SVG Export Plug-In . SVG Version: 6.00 Build 0)  -->
<svg version="1.1" id="Capa_1" xmlns="http://www.w3.org/2000/svg" xmlns:xlink="http://www.w3.org/1999/xlink" x="0px" y="0px"
	 viewBox="0 0 200 204" style="enable-background:new 0 0 200 204;" xml:space="preserve">
<g>
	<path d="M193.2,102.3c0-20.7,0-41.5,0-62.2c0-17.4-13.8-31.3-31.2-31.3c-41.4,0-82.8,0-124.2,0C20.6,8.8,6.8,22.6,6.8,40
		c0,41.3,0,82.6,0,123.9c0,17.4,13.8,31.3,31.2,31.3c41.2,0,82.4,0,123.6,0c18.1,0,31.7-13.7,31.7-31.8
		C193.2,143,193.2,122.7,193.2,102.3z M133.5,152.4c-4.2,2.3-8.7,3.8-13.4,4.6c-4.2,0.7-8.4,1-12.7,1c-15.8,0-31.6-0.1-47.4,0
		c-2.1,0-2.6-0.5-2.6-2.7c0.1-34.3,0.1-68.5,0.1-102.8c0-3.5-0.1-3.5,3.6-3.5c16.2,0,32.5,0,48.7,0c5.7,0,11.3,0.6,16.7,2.7
		c10,3.8,15.4,10.9,16.1,21.7c0.7,11-3.2,19.6-13.2,24.9c-0.6,0.3-1.3,0.4-1.6,1.2c1.5,0.5,3,0.9,4.5,1.5c9.4,3.9,13.5,11.5,15,21.1
		C149.2,135.3,144.1,146.6,133.5,152.4z"/>
	<path d="M95.6,142.4c-5.6,0-11.2-0.1-16.8,0c-1.7,0-2.3-0.3-2.3-2.2c0.1-9.8,0.1-19.7,0-29.5c0-1.7,0.5-2.1,2.1-2.1
		c11,0.1,22.1,0,33.1,0.1c7.4,0.1,13.1,3.7,15.4,9.6c2.6,6.7,1.1,15.3-3.6,19.7c-3.4,3.2-7.6,4.4-12.1,4.4
		C106.1,142.4,100.9,142.4,95.6,142.4z"/>
	<path d="M93.4,94.8c-5,0-10,0-15,0c-1.4,0-1.9-0.4-1.9-1.9c0.1-8.8,0.1-17.5,0-26.3c0-1.4,0.4-1.9,1.8-1.9
		c10.2,0.1,20.4,0,30.6,0.1c1.5,0,3,0.3,4.5,0.6c5.6,1.2,9,4.5,9.7,10.3c0.9,6.5,0,12.4-6.1,16.4c-2.8,1.8-5.9,2.6-9.2,2.6
		C103.1,94.8,98.3,94.8,93.4,94.8z"/>
</g>
</svg>
