<?xml version="1.0" encoding="utf-8"?>
<!-- Generator: Adobe Illustrator 25.4.1, SVG Export Plug-In . SVG Version: 6.00 Build 0)  -->
<svg version="1.1" id="Capa_1" xmlns="http://www.w3.org/2000/svg" xmlns:xlink="http://www.w3.org/1999/xlink" x="0px" y="0px"
	 viewBox="0 0 200 229" style="enable-background:new 0 0 200 229;" xml:space="preserve">
<style type="text/css">
	.st0{fill:#FFFFFF;}
</style>
<g>
	<path d="M10.3,11c60.3,0,120.5,0,180.8,0c-1.1,12.8-2.3,25.6-3.4,38.4c-1.2,13.1-2.3,26.1-3.5,39.2c-1.1,12.7-2.2,25.4-3.4,38.2
		c-1.2,13-2.3,26-3.5,39c-0.9,9.8-1.8,19.7-2.6,29.5c-0.1,1.2-0.4,1.9-1.7,2.3c-23.7,6.6-47.3,13.2-71,19.8
		c-0.7,0.2-1.6,0.3-2.3,0.1c-23.9-6.6-47.7-13.3-71.6-20c-0.6-0.2-1.4-1.1-1.4-1.7c-0.5-3.7-0.7-7.4-1.1-11
		c-1.3-14.4-2.5-28.8-3.8-43.2c-1.3-14.5-2.6-28.9-3.9-43.4c-1.3-14.4-2.5-28.8-3.8-43.2C12.9,40.2,11.6,25.6,10.3,11z M50.6,128.6
		c0.2,2,0.3,3.6,0.5,5.3c0.9,9.9,1.8,19.8,2.6,29.7c0.1,1.3,0.6,1.8,1.9,2.1c14.6,4,29.1,8,43.7,12c0.7,0.2,1.6,0.3,2.3,0.2
		c14.9-4.1,29.8-8.2,44.6-12.4c0.6-0.2,1.2-1,1.3-1.6c0.4-2.2,0.5-4.4,0.7-6.6c1.4-15.8,2.8-31.6,4.2-47.4c1.5-17.3,3.1-34.7,4.7-52
		c0.3-2.9,0.5-5.8,0.7-8.8c-38.2,0-76.3,0-114.4,0c0.5,7.2,1,14.2,1.5,21.3c29.5,0,58.9,0,88.3,0c-0.5,6.9-1,13.6-1.5,20.3
		c-0.2,2.7-0.1,2.7-2.8,2.8c-26.4,0.3-52.9,0.6-79.3,1c-0.8,0-1.5,0-2.5,0c0.8,7.4,1.5,14.5,2.3,21.6c26.9,0,53.5,0,80.1,0
		c-1.1,10-2.2,19.8-3.2,29.6c-0.1,1.4-0.6,2.1-2.1,2.4c-7.4,1.9-14.8,4-22.2,5.9c-1,0.3-2.1,0.2-3.1,0c-7.3-1.9-14.6-4-22-5.8
		c-1.4-0.4-1.9-1.1-2-2.4c-0.4-5.2-0.9-10.3-1.4-15.5c-0.1-0.6-0.7-1.6-1.1-1.6C65.3,128.5,58.1,128.6,50.6,128.6z"/>
	<path class="st0" d="M50.6,128.6c7.5,0,14.7,0,21.9,0.1c0.4,0,1.1,1,1.1,1.6c0.5,5.1,1,10.3,1.4,15.5c0.1,1.4,0.6,2.1,2,2.4
		c7.3,1.9,14.7,3.9,22,5.8c1,0.3,2.1,0.3,3.1,0c7.4-1.9,14.8-4,22.2-5.9c1.4-0.4,1.9-1.1,2.1-2.4c1-9.8,2.1-19.6,3.2-29.6
		c-26.7,0-53.3,0-80.1,0c-0.7-7.1-1.5-14.2-2.3-21.6c0.9,0,1.7,0,2.5,0c26.4-0.3,52.9-0.6,79.3-1c2.7,0,2.6-0.1,2.8-2.8
		c0.5-6.7,1-13.4,1.5-20.3c-29.4,0-58.8,0-88.3,0c-0.5-7.1-1-14.1-1.5-21.3c38.1,0,76.1,0,114.4,0c-0.2,2.9-0.5,5.9-0.7,8.8
		c-1.6,17.3-3.1,34.7-4.7,52c-1.4,15.8-2.8,31.6-4.2,47.4c-0.2,2.2-0.3,4.4-0.7,6.6c-0.1,0.6-0.8,1.4-1.3,1.6
		c-14.9,4.2-29.7,8.3-44.6,12.4c-0.7,0.2-1.6,0.1-2.3-0.2c-14.6-4-29.1-8.1-43.7-12c-1.2-0.3-1.7-0.8-1.9-2.1
		c-0.8-9.9-1.8-19.8-2.6-29.7C50.9,132.2,50.8,130.5,50.6,128.6z"/>
</g>
</svg>
