<?xml version="1.0" encoding="utf-8"?>
<!-- Generator: Adobe Illustrator 25.4.1, SVG Export Plug-In . SVG Version: 6.00 Build 0)  -->
<svg version="1.1" id="Capa_1" xmlns="http://www.w3.org/2000/svg" xmlns:xlink="http://www.w3.org/1999/xlink" x="0px" y="0px"
	 viewBox="0 0 200 204" style="enable-background:new 0 0 200 204;" xml:space="preserve">
<style type="text/css">
	.st0{fill:#FEFEFE;}
	.st1{fill:#F6F6F6;}
</style>
<g>
	<path d="M8.2,192c0-43.6,0-87.3,0-130.9c0.5-0.5,1.2-0.5,1.8-0.6c0.7,0,1.4,0,2.1,0c57.8,0,115.7,0,173.5,0c4.2,0,4.2,0,4.2,4.1
		c0,41.7,0,83.5,0,125.2c0,0.8,0,1.6-0.1,2.5c-0.4,2-1.6,3.2-3.7,3.6c-0.7,0.1-1.4,0.1-2.1,0.1c-56.7,0-113.3,0-170,0
		c-0.9,0-1.9,0-2.8-0.3C9.3,195.2,8.6,193.7,8.2,192z"/>
	<path d="M8.2,50.4c0-10.8,0-21.5,0-32.3c0.4-2.2,1.8-3.4,3.9-3.9c57.9,0,115.8,0,173.7,0c3.3,1.1,4.1,2.1,4.1,5.6
		c0,9.6,0,19.3,0,28.9c0,1.9-0.2,2.1-2.1,2.2c-0.5,0-1.1,0-1.6,0C128,51,69.8,51,11.6,51C10.4,51,9.2,51.2,8.2,50.4z"/>
	<path class="st0" d="M8.2,50.4c0.7,0,1.4-0.1,2.1-0.1c59.1,0,118.2,0,177.3,0c1.7,0,2.1-0.4,2.1-2.1c-0.1-9-0.1-18,0-27
		c0.1-3.3-0.9-5.7-4-7.1c1.4,0,3.4-0.6,4.1,0.2c0.7,0.7,0.2,2.7,0.2,4.1c0,58.7,0,117.4,0,176.2c0,1.3-0.3,1.6-1.6,1.6
		c-59.5,0-119,0-178.5,0c-1.5,0-2-0.3-1.8-1.8c0.1-0.8,0-1.7,0-2.5c1.4,3,3.8,4,7.1,4c55.9-0.1,111.8,0,167.6,0
		c4.9,0,6.8-1.8,6.8-6.7c0-42.2,0-84.3,0-126.5c0-1.3-0.2-1.8-1.7-1.8c-59.5,0-119,0-178.5,0c-0.5,0-0.9,0-1.4,0.1
		C8.2,57.5,8.2,53.9,8.2,50.4z"/>
	<path class="st1" d="M12.1,14.2c-1.8,0.8-3,2.2-3.9,3.9c0-1.3-0.5-3.1,0.1-3.8S10.8,14.2,12.1,14.2z"/>
	<path class="st0" d="M70.6,85.1c9.8,0,19.6,0,29.4,0c4.4,0,6.4,2,6.4,6.3c0,14.5,0,29,0,43.4c0,4.1-2.1,6.2-6.2,6.2
		c-19.9,0-39.8,0-59.7,0c-4,0-6.1-2.1-6.1-6.1c0-14.6,0-29.2,0-43.8c0-4.1,2-6.1,6.1-6.1C50.5,85.1,60.5,85.1,70.6,85.1z"/>
	<path class="st0" d="M99.1,150.5c19.5,0,39.1,0,58.6,0c4.2,0,6.8,3.7,5.3,7.3c-0.8,2-2.4,3-4.5,3.3c-0.5,0.1-0.9,0-1.4,0
		c-38.9,0-77.7,0-116.6,0c-2.4,0-4.3-0.6-5.5-2.7c-1.9-3.4,0.4-7.6,4.3-7.9c0.9-0.1,1.8,0,2.7,0C61.1,150.5,80.1,150.5,99.1,150.5z"
		/>
	<path class="st0" d="M139.5,117.5c-6,0-11.9,0-17.9,0c-3.5,0-6-2.3-5.9-5.4c0.1-3.1,2.5-5.2,5.9-5.2c12,0,24,0,35.9,0
		c3.5,0,5.9,2.2,5.9,5.4c0,3.1-2.4,5.2-5.9,5.2C151.6,117.5,145.6,117.5,139.5,117.5z"/>
	<path class="st0" d="M139.6,128.7c6,0,11.9,0,17.9,0c3.5,0,5.9,2.1,5.9,5.2c0.1,3.2-2.3,5.5-5.9,5.5c-12,0-24,0-36,0
		c-3.2,0-5.3-1.7-5.8-4.4c-0.5-2.5,0.9-4.9,3.3-5.8c0.9-0.4,1.8-0.4,2.8-0.4C127.8,128.7,133.7,128.7,139.6,128.7z"/>
	<path class="st0" d="M139.6,85.1c6,0,11.9,0,17.9,0c3.6,0,6,2.1,6,5.3c0,3.2-2.4,5.3-6,5.3c-12,0-24,0-35.9,0
		c-3.2,0-5.3-1.8-5.7-4.6c-0.4-2.4,1.1-4.8,3.5-5.7c0.9-0.3,1.7-0.3,2.6-0.3C127.8,85.1,133.7,85.1,139.6,85.1z"/>
	<path class="st0" d="M166,37.7c-3,0-5.4-2.4-5.5-5.5c0-2.8,2.5-5.3,5.5-5.4c3,0,5.5,2.5,5.5,5.6C171.6,35.1,169,37.7,166,37.7z"/>
	<path class="st0" d="M146,37.7c-3,0-5.4-2.5-5.5-5.6c0-2.7,2.7-5.3,5.6-5.3c3,0,5.4,2.5,5.4,5.6C151.5,35.3,149,37.7,146,37.7z"/>
	<path d="M70.3,130.5c-7.9,0-15.8,0-23.7,0c-1.3,0-1.6-0.4-1.5-1.6c0-10.6,0.1-21.1,0-31.7c0-1.3,0.4-1.5,1.6-1.5
		c15.9,0,31.8,0,47.6,0c1.2,0,1.6,0.3,1.5,1.5c-0.1,10.6-0.1,21.1,0,31.7c0,1.3-0.4,1.5-1.6,1.5C86.2,130.4,78.3,130.5,70.3,130.5z"
		/>
</g>
</svg>
