<?xml version="1.0" encoding="utf-8"?>
<!-- Generator: Adobe Illustrator 25.4.1, SVG Export Plug-In . SVG Version: 6.00 Build 0)  -->
<svg version="1.1" id="Capa_1" xmlns="http://www.w3.org/2000/svg" xmlns:xlink="http://www.w3.org/1999/xlink" x="0px" y="0px"
	 viewBox="0 0 207 233" style="enable-background:new 0 0 207 233;" xml:space="preserve">
<style type="text/css">
	.st0{fill:#FFFFFF;}
</style>
<g>
	<path class="st0" d="M200.7,8.3c-65.3,0-130.2,0-195.3,0C5.6,10.7,5.8,13,6,15.2c2,21.3,4,42.6,6.1,63.9c2,21.3,4.1,42.6,6.2,63.9
		c1.9,19.7,3.8,39.4,5.6,59.2c0.2,1.7,0.8,2.6,2.5,3.1c24.9,6.7,49.9,13.6,74.8,20.3c1.1,0.3,2.4,0.3,3.5,0c25-6.8,50-13.6,75-20.4
		c1.5-0.4,2.2-1,2.3-2.7c1.4-15.1,2.9-30.3,4.3-45.4c1.3-13.3,2.5-26.6,3.8-40c1.4-15.1,2.9-30.1,4.3-45.2
		c1.3-13.5,2.6-26.9,3.9-40.4C199.2,23.9,199.9,16.2,200.7,8.3z"/>
	<path d="M200.7,8.3c-0.8,7.9-1.5,15.6-2.2,23.3c-1.3,13.5-2.6,26.9-3.9,40.4c-1.4,15.1-2.9,30.1-4.3,45.2
		c-1.3,13.3-2.5,26.6-3.8,40c-1.5,15.1-2.9,30.3-4.3,45.4c-0.2,1.7-0.8,2.3-2.3,2.7c-25,6.8-50,13.6-75,20.4c-1.1,0.3-2.4,0.3-3.5,0
		c-24.9-6.7-49.9-13.6-74.8-20.3c-1.8-0.5-2.4-1.3-2.5-3.1c-1.8-19.7-3.7-39.5-5.6-59.2c-2-21.3-4.1-42.6-6.2-63.9
		C10,57.8,8,36.5,6,15.2C5.8,13,5.6,10.7,5.3,8.3C70.4,8.3,135.4,8.3,200.7,8.3z M48.8,139.8c-0.1,0.4-0.2,0.7-0.2,1
		c0,10.7,0,21.3,0,32c0,1.5,0.9,1.7,1.9,2c17.2,5.3,34.3,10.7,51.5,15.9c0.9,0.3,2.1,0.3,3,0c15.9-4.6,31.8-9.2,47.7-13.8
		c1.5-0.4,2-1.1,2.1-2.6c0.5-6.9,1-13.7,1.6-20.6c1.1-14.8,2.3-29.6,3.4-44.3c0.5-6,0.9-12,1.4-18.3c-27.3,0-54.4,0-81.6,0
		c-0.5-5.2-0.9-10.1-1.4-15.3c27.9,0,55.6,0,83.2,0c0-11,0-21.8,0-32.5c-40.4,0-80.6,0-120.9,0c2.9,27.1,5.7,54.1,8.5,81.2
		c25.4,0,50.4,0,75.5,0c-0.5,8.3-0.9,16.4-1.4,24.4c0,0.5-0.8,1.2-1.4,1.4c-5.7,1.9-11.3,3.8-17,5.6c-0.8,0.3-1.8,0.2-2.6,0
		c-5.9-1.8-11.8-3.7-17.8-5.4c-1.4-0.4-1.7-1.1-1.7-2.4c0.1-2.7,0-5.4,0-8.3C71.3,139.8,60.1,139.8,48.8,139.8z"/>
	<path class="st0" d="M48.8,139.8c11.3,0,22.5,0,33.9,0c0,2.9,0.1,5.6,0,8.3c0,1.3,0.3,2,1.7,2.4c5.9,1.7,11.8,3.6,17.8,5.4
		c0.8,0.2,1.8,0.2,2.6,0c5.7-1.8,11.4-3.7,17-5.6c0.6-0.2,1.4-0.9,1.4-1.4c0.5-8.1,1-16.1,1.4-24.4c-25.1,0-50.2,0-75.5,0
		c-2.9-27.1-5.7-54.1-8.5-81.2c40.3,0,80.5,0,120.9,0c0,10.7,0,21.5,0,32.5c-27.7,0-55.3,0-83.2,0c0.5,5.2,0.9,10.2,1.4,15.3
		c27.2,0,54.2,0,81.6,0c-0.5,6.3-0.9,12.3-1.4,18.3c-1.1,14.8-2.3,29.6-3.4,44.3c-0.5,6.9-1.1,13.7-1.6,20.6
		c-0.1,1.5-0.6,2.2-2.1,2.6c-15.9,4.6-31.8,9.2-47.7,13.8c-0.9,0.3-2.1,0.3-3,0c-17.2-5.3-34.4-10.6-51.5-15.9c-1-0.3-1.9-0.5-1.9-2
		c0.1-10.7,0-21.3,0-32C48.6,140.6,48.7,140.3,48.8,139.8z"/>
</g>
</svg>
