<?xml version="1.0" encoding="utf-8"?>
<!-- Generator: Adobe Illustrator 25.4.1, SVG Export Plug-In . SVG Version: 6.00 Build 0)  -->
<svg version="1.1" id="Capa_1" xmlns="http://www.w3.org/2000/svg" xmlns:xlink="http://www.w3.org/1999/xlink" x="0px" y="0px"
	 viewBox="0 0 200 153" style="enable-background:new 0 0 200 153;" xml:space="preserve">
<path d="M180.2,91.8c-9.8-4.9-19.8-4.5-29.8-0.3c-1.3,0.6-1.8,0.4-2.6-0.8c-3.8-6.4-4.3-13-1.7-19.9c1.1-2.8,0.5-3.6-2.7-3.7
	c-0.9,0.3-1.8,0.4-2.7,0c-4.6,0-5.2,0.5-6.3,4.8c-2.1,8.6-7.4,15.6-11.6,23.5c-1.4-2.1-2.2-4.1-2.7-6.2c-1-4.5-0.4-8.9,1.2-13.1
	c0.3-0.8,1-1.7,0.2-2.5c-2-2.1-4.5-1.1-6.8-1.1c-1.6,0.1-3.5,0.1-4.4,2c-0.1,0.3-0.1,0.7-0.3,1.1c-0.6,1.8-1,3.6-1.7,5.3
	c-3.9,8.9-7.9,17.8-12,26.7c-1.4,3-2.8,6.1-4.7,9.1c-0.9-2.3-0.3-4.3,0-6.2c1.1-5.4,2.6-10.7,4.1-16c0.9-3.2-0.9-5.4-4.1-4.6
	c-1.8,0.5-1.6-0.3-1.6-1.4c-0.3-1-0.3-2.1,0-3.1c-0.1-3.3-1.3-5-4-5.9c-1.2,0-2.4,0.2-3.6,0c-0.9-0.1-1.8,0.3-2.6,0.6
	c-4.2,1.8-7.6,4.7-10.5,8.1c-0.8,1-1.6,2-2.7,2.6c-5.3,2.8-10.5,5.6-15.7,8.5c-0.8,0.4-1.4,0.7-2.2-0.1c-6-6.1-13.4-10.7-19.8-16.3
	c-9.4-8.2-10.8-18.4-3.9-28.7c2.9-4.3,6.6-7.7,10.6-10.8c8-6.4,17-11.3,26.4-15.3c11.4-4.9,23.2-8.1,35.8-6.6
	c2.2,0.3,4.3,0.7,6.3,1.4c8.2,3,10.8,8.8,7.6,17c-2.6,6.5-7.1,11.5-12.6,15.6c-8.7,6.5-18.5,10.1-29.3,11.1
	C63,67,56.4,66.2,51.3,60.8c-0.4-0.4-0.8-0.8-1.4-0.5c-0.7,0.3-0.6,0.9-0.5,1.5c0.4,2.4,2,4,3.6,5.5c4.5,4,10,5.2,15.7,5.4
	c10.1,0.3,19.8-1.6,28.8-6c12.1-5.9,20.9-14.9,24.6-28.2c2.6-9.6-0.7-18.2-8.7-23.1c-3.5-2.2-7.4-3.6-11.4-4.4
	c-9.4-1.9-18.8-1.5-28.1,0.8c-12.8,3.2-24.7,8.6-36,15.4C28.5,32.9,20,39.6,13.5,48.6c-3.3,4.7-6.3,9.6-6.5,15.6
	c0.4,0.9,0.4,1.8,0,2.7c0.1,3.4,1.6,6.3,3.3,9.1c3.9,6.3,9.6,11,15.5,15.3c5.1,3.7,10.3,7.3,15.5,10.9c1.5,1.1,1.5,1.6-0.2,2.4
	c-6.7,3.2-13.1,7.1-18.8,11.9c-6,5-10.1,10.9-9.4,19.2c0.4,5.2,3.7,9.4,7.9,10.3c3.9,0.8,7.7,0.7,11.5-0.2
	c17.5-4.1,27.6-22.8,21.5-39.7c-0.2-0.6-0.9-1.2,0-1.8c3-1.8,6.1-3.5,9.6-5.5c-0.3,1.1-0.5,1.6-0.6,2.1c-2.1,7.7-2.8,15.4,0.8,22.9
	c1.2,2.5,2.3,5.3,5.6,5.8c1.1-0.1,2.1-0.1,3.2,0c2.5-0.2,3.7-2.2,4.9-4c2-3.1,3.3-6.6,4.9-9.9c0.3-0.2,0.5-0.6,0.6-0.9
	c0,0,0.1,0,0.1,0c0,0.1-0.1,0.1-0.1,0.2c-0.1,0.2-0.1,0.5,0,0.8c0.3,1.9-0.2,3.9,0.3,5.8c0.2,0.7,0.3,1.5,0.6,2.2
	c1.3,4,4.9,4.9,8,2.1c1.3-1.2,2.5-2.6,3.4-4.1c4.3-7.6,8.4-15.3,11.9-23.2c1.5-3.3,2.9-6.7,4.5-10.5c0.5,2.1,0.8,3.7,1.3,5.3
	c0.5,1.6,0.8,3.5,1.8,4.8c3.3,4.4,1.7,7.6-1.6,11.1c-3.1,3.2-6.1,6.6-8.5,10.3c-1.8,2.8-0.8,4.7,2.3,5.2c1-0.4,2.1-0.4,3.1,0
	c5.5-0.3,10.2-2.6,14.1-6.4c2.2-2.1,3.2-4.9,3.4-8c0.1-2.7-0.5-5.3-1.5-7.8c-0.3-0.8-0.6-1.5,0-2.3c3.8-5.5,7.1-11.3,10.3-17.5
	c0.2,0.5,0.4,0.8,0.5,1c0.8,3.9,1.8,7.7,3.8,11.2c0.9,1.5,0.7,2.3-0.6,3.5c-4.4,4-8.2,8.5-9.1,14.7c-0.6,4.2,2.2,6.8,6.3,5.6
	c1.6-0.4,3.1-1,4.6-1.7c9-4.2,11.7-9.5,9.5-18.9c-0.3-1.5,0.5-1.6,1.4-1.9c5.2-1.7,10.5-2,15.9-1.4c5,0.6,9.9,1.8,13.8,5.3
	c5.3,4.6,8,12.3-0.2,17.7c-0.6,0.4-1.6,0.7-1.1,1.6c0.4,0.8,1.3,0.4,2,0.2c3.7-1,7.5-5.7,7.9-9.5C191.7,102.6,187.7,95.5,180.2,91.8
	z M48.2,113.5c0,10.7-7.8,20.5-17.5,22.5c-4.9,1-7.3-1.4-6.4-6.3c0.6-3.5,2.2-6.5,4.6-9c5-5.3,11.2-9.1,17.3-12.9
	c0.8-0.5,1.2-0.3,1.4,0.6C48,110.2,48.3,112.1,48.2,113.5z M85.3,88.6c-0.6,3.3-1.6,6.5-2.8,9.6c-2.1,5.8-4.2,11.6-6.9,17.2
	c-0.7,1.3-1.3,3.3-2.8,3.1c-1.8-0.2-1.7-2.4-2-3.8c-0.3-1.2-0.2-2.5-0.3-3.7c0.2-8.2,3.1-15.2,8-21.5c1-1.3,2.4-2.2,3.8-3
	c0.8-0.5,1.7-0.7,2.5-0.2C85.7,86.9,85.4,87.9,85.3,88.6z M119.4,110.8c-1.3,4.3-4.5,6.5-8.5,8c2.7-3.1,5.3-6.3,8-9.4
	C120,109.5,119.4,110.3,119.4,110.8z M138.4,112.5c-0.4,0.2-0.9,0.4-1.2,0.2c-0.6-0.3-0.2-0.9-0.1-1.4c1-4,3.1-7.4,6-10.2
	c0.7-0.7,1.3-0.8,1.4,0.4c0.1,0.7,0.1,1.5,0.1,1.5C144.3,108,142.2,110.8,138.4,112.5z"/>
</svg>
