<?xml version="1.0" encoding="utf-8"?>
<!-- Generator: Adobe Illustrator 25.4.1, SVG Export Plug-In . SVG Version: 6.00 Build 0)  -->
<svg version="1.1" id="Capa_1" xmlns="http://www.w3.org/2000/svg" xmlns:xlink="http://www.w3.org/1999/xlink" x="0px" y="0px"
	 viewBox="0 0 200 156" style="enable-background:new 0 0 200 156;" xml:space="preserve">
<g>
	<path d="M195.1,141.5c-0.2,0.6-0.4,1.2-0.6,1.7c-1.6,4.5-5.6,7.6-10.3,7.6c-15.2,0.1-30.3,0.1-45.5,0c-6.1,0-10.9-5-10.9-11
		c0-30.1,0-60.1,0-90.2c0-6.1,4.9-11,11-11c15.2-0.1,30.3-0.1,45.5,0c4.7,0,8.7,3,10.3,7.4c0.2,0.6,0.5,1.3,0.7,1.9
		C195.1,79.1,195.1,110.3,195.1,141.5z M161.3,134c1.9,0,3.9,0,5.8,0c3.2-0.1,5.6-2.6,5.6-5.6c0-3.1-2.4-5.5-5.6-5.6
		c-3.7-0.1-7.5-0.1-11.2,0c-3.2,0-5.6,2.5-5.7,5.5c0,3.1,2.4,5.6,5.7,5.7C157.6,134.1,159.5,134,161.3,134z M167,60.9
		c0-3-2.6-5.6-5.6-5.5c-3,0-5.6,2.6-5.6,5.6c0,3.1,2.6,5.7,5.7,5.6C164.5,66.6,167,64,167,60.9z"/>
	<path d="M183.9,27.3c-0.9,0-1.6,0-2.3,0c-14,0-28,0-41.9,0c-13.4,0-23.2,9.8-23.2,23.1c0,21.4,0,42.8,0,64.2c0,0.7,0,1.5,0,2.4
		c-33.9,0-67.7,0-101.9,0c0-0.6,0-1.3,0-1.9c0-30.8,0-61.6,0-92.5c0-10.7,7.2-17.8,17.9-17.8c44.5,0,89,0,133.5,0
		c10.8,0,17.9,7.1,17.9,17.9C183.9,24.2,183.9,25.6,183.9,27.3z"/>
	<path d="M116.4,128.4c0.4,7.7-1.2,15.3,3.2,22.4c-0.9,0-1.4,0.1-2,0.1c-34.1,0-68.1,0-102.2,0c-7.3,0-12-4.7-12-12.1
		c0-1.6,0-3.2,0-4.9c0.1-3.1,2.4-5.4,5.5-5.5c0.4,0,0.7,0,1.1,0c34.8,0,69.6,0,104.4,0C115,128.4,115.6,128.4,116.4,128.4z"/>
</g>
</svg>
