<?xml version="1.0" encoding="utf-8"?>
<!-- Generator: Adobe Illustrator 25.4.1, SVG Export Plug-In . SVG Version: 6.00 Build 0)  -->
<svg version="1.1" id="Capa_1" xmlns:svgjs="http://svgjs.com/svgjs"
	 xmlns="http://www.w3.org/2000/svg" xmlns:xlink="http://www.w3.org/1999/xlink" x="0px" y="0px" viewBox="0 0 512 512"
	 style="enable-background:new 0 0 512 512;" xml:space="preserve">
<style type="text/css">
	.st0{fill:#FFFFFF;}
</style>
<g>
	<g>
		<path class="st0" d="M472.3,145.8c4.1,0,7.5-3.4,7.5-7.5V79.3h12.4c10.9,0,19.7-8.8,19.7-19.7V19.7C512,8.8,503.1,0,492.2,0h-39.9
			c-10.9,0-19.7,8.8-19.7,19.7v12.4h-137V19.7c0-10.9-8.8-19.7-19.7-19.7h-39.9c-10.9,0-19.7,8.8-19.7,19.7v12.4h-137V19.7
			C79.3,8.8,70.5,0,59.6,0H19.7C8.9,0,0,8.8,0,19.7v39.9c0,10.9,8.8,19.7,19.7,19.7h12.4v137H19.7C8.9,216.3,0,225.2,0,236.1v39.9
			c0,10.9,8.8,19.7,19.7,19.7h12.4v137H19.7C8.9,432.7,0,441.5,0,452.4v39.9C0,503.1,8.9,512,19.7,512h39.9
			c10.9,0,19.7-8.9,19.7-19.7v-12.4h137v12.4c0,10.9,8.8,19.7,19.7,19.7h39.9c10.9,0,19.7-8.9,19.7-19.7v-12.4h137v12.4
			c0,10.9,8.9,19.7,19.7,19.7h39.9c10.9,0,19.7-8.9,19.7-19.7v-39.9c0-10.9-8.9-19.7-19.7-19.7h-12.4v-137h12.4
			c10.9,0,19.7-8.8,19.7-19.7v-39.9c0-10.9-8.9-19.7-19.7-19.7h-12.4v-42.6c0-4.1-3.4-7.5-7.5-7.5s-7.5,3.4-7.5,7.5v42.6h-12.4
			c-10.9,0-19.7,8.8-19.7,19.7v39.9c0,10.9,8.9,19.7,19.7,19.7h12.4v137h-12.4c-0.1,0-0.2,0-0.4,0c-13.9-87.4-42.6-161.3-85.5-220
			c1.6-2.5,2.5-5.5,2.5-8.7v-28.7c0-9-7.3-16.3-16.3-16.3h-28.7c-1.6,0-3.1,0.2-4.5,0.7C257.1,101.5,176.4,66.9,79.3,56.7v-9.6h137
			v12.4c0,10.9,8.8,19.7,19.7,19.7h39.9c10.9,0,19.7-8.8,19.7-19.7V47.2h137v12.4c0,10.9,8.9,19.7,19.7,19.7h12.4v58.9
			C464.8,142.4,468.2,145.8,472.3,145.8L472.3,145.8z M447.7,275.9v-39.9c0-2.6,2.1-4.7,4.7-4.7h39.9c2.6,0,4.7,2.1,4.7,4.7v39.9
			c0,2.6-2.2,4.7-4.7,4.7h-39.9C449.8,280.7,447.7,278.5,447.7,275.9z M15,59.6V19.7c0-2.6,2.2-4.7,4.7-4.7h39.9
			c2.6,0,4.7,2.2,4.7,4.7v39.9c0,2.6-2.1,4.7-4.7,4.7H19.7C17.2,64.3,15,62.2,15,59.6z M15,275.9v-39.9c0-2.6,2.2-4.7,4.7-4.7h39.9
			c2.6,0,4.7,2.1,4.7,4.7v39.9c0,2.6-2.2,4.7-4.7,4.7H19.7C17.2,280.7,15,278.5,15,275.9z M64.3,492.3c0,2.6-2.1,4.7-4.7,4.7H19.7
			c-2.6,0-4.7-2.2-4.7-4.7v-39.9c0-2.6,2.2-4.7,4.7-4.7h39.9c2.6,0,4.7,2.1,4.7,4.7L64.3,492.3L64.3,492.3z M59.6,432.7H47.2v-28.1
			L76.6,375l64.3,64.1l-25.6,25.7h-36v-12.4C79.3,441.5,70.5,432.7,59.6,432.7L59.6,432.7z M170.7,419.9c0.7,0.7,0.7,1.9,0,2.6
			l-11.3,11.4c-0.4,0.4-1,0.5-1.3,0.5s-0.8-0.1-1.3-0.5l-74.9-74.7c-0.7-0.7-0.7-1.9,0-2.6l11.3-11.3c0.4-0.4,0.8-0.5,1.3-0.5
			c0.5,0,0.9,0.2,1.3,0.5L170.7,419.9z M280.7,492.3c0,2.6-2.2,4.7-4.7,4.7h-39.9c-2.6,0-4.7-2.1-4.7-4.7v-39.9
			c0-2.6,2.1-4.7,4.7-4.7h39.9c2.6,0,4.7,2.2,4.7,4.7L280.7,492.3L280.7,492.3z M295.7,464.8v-12.4c0-10.9-8.8-19.7-19.7-19.7h-39.9
			c-10.9,0-19.7,8.9-19.7,19.7v12.4h-79.9l16.3-16.3c1.7,0.6,3.5,0.9,5.3,0.9c4.5,0,8.7-1.8,11.9-4.9l11.3-11.4
			c6.6-6.5,6.5-17.2,0-23.8c0,0,0,0,0,0L177,405l80.7-38c2.2-1,3.7-3.1,4.2-5.4L284,240.1c0.9-5.2-3.6-9.8-8.8-8.8l-121.4,22.5
			c-2.4,0.4-4.4,2-5.4,4.2L135,286.7c-1.8,3.8-0.1,8.2,3.6,10c3.8,1.8,8.2,0.1,10-3.6l11.8-25.1l94-17.4L219.9,285
			c-4-2.2-8.5-3.4-13.3-3.4c0,0,0,0,0,0c-7.3,0-14.2,2.9-19.4,8c-10.6,10.7-10.6,28,0.1,38.7c5.3,5.3,12.3,7.9,19.3,7.9
			c7,0,14-2.7,19.4-8c8.8-8.8,10.3-22.2,4.5-32.6L265,261l-17.2,94.1l-82.1,38.6l-43.8-43.7l12.2-26.2c1.8-3.8,0.1-8.2-3.6-10
			c-3.8-1.8-8.2-0.1-10,3.6l-9.9,21.2l-4.2-4.2c-6.5-6.6-17.2-6.6-23.8,0l-11.3,11.4c-4.6,4.7-5.9,11.4-4,17.2l-20.1,20.2v-87.6
			h12.4c10.9,0,19.7-8.8,19.7-19.7v-39.9c0-10.9-8.8-19.7-19.7-19.7H47.2v-137h12.4c6.4,0,12.2-3.1,15.8-7.9
			c94.5,9.5,172.9,42.7,233.3,98.6c-0.6,1.7-0.9,3.4-0.9,5.3V204c0,9,7.3,16.3,16.3,16.3h28.7c0.2,0,0.5,0,0.7,0
			c42.6,57.8,71,131.4,84.3,218.8c-3.2,3.5-5.2,8.2-5.2,13.3v12.4L295.7,464.8L295.7,464.8z M215.4,300.2c4.8,4.8,4.8,12.7,0,17.5
			c-4.8,4.8-12.7,4.8-17.5,0c-4.8-4.8-4.8-12.7,0-17.5c2.3-2.3,5.4-3.6,8.8-3.6h0C210,296.6,213.1,297.8,215.4,300.2z M497,452.4
			v39.9c0,2.6-2.2,4.7-4.7,4.7h-39.9c-2.6,0-4.7-2.2-4.7-4.7v-39.9c0-1.6,0.8-3,2.1-3.9c0,0,0,0,0.1,0c0.8-0.5,1.6-0.8,2.6-0.8h39.9
			C494.8,447.7,497,449.8,497,452.4L497,452.4z M354.1,175.3V204c0,0.5-0.3,0.9-0.7,1.2c0,0-0.1,0-0.1,0.1c-0.2,0.1-0.3,0.1-0.5,0.1
			h-28.7c-0.7,0-1.3-0.6-1.3-1.3v-28.7c0-0.7,0.6-1.3,1.3-1.3h28.7C353.5,174,354.1,174.6,354.1,175.3L354.1,175.3z M280.7,59.6
			c0,2.6-2.2,4.7-4.7,4.7h-39.9c-2.6,0-4.7-2.1-4.7-4.7V19.7c0-2.6,2.2-4.7,4.7-4.7h39.9c2.6,0,4.7,2.2,4.7,4.7L280.7,59.6
			L280.7,59.6z M447.7,59.6V19.7c0-2.6,2.2-4.7,4.7-4.7h39.9c2.6,0,4.7,2.2,4.7,4.7v39.9c0,2.6-2.1,4.7-4.7,4.7h-39.9
			C449.8,64.3,447.7,62.2,447.7,59.6z"/>
	</g>
</g>
</svg>
