<?xml version="1.0" encoding="utf-8"?>
<!-- Generator: Adobe Illustrator 25.4.1, SVG Export Plug-In . SVG Version: 6.00 Build 0)  -->
<svg version="1.1" id="Capa_1" xmlns="http://www.w3.org/2000/svg" xmlns:xlink="http://www.w3.org/1999/xlink" x="0px" y="0px"
	 viewBox="0 0 200 200" style="enable-background:new 0 0 200 200;" xml:space="preserve">
<path d="M178.3,0H21.4C9.4,0-0.3,9.7-0.3,21.7v156.9c0,12,9.7,21.7,21.7,21.7h156.9c12,0,21.7-9.7,21.7-21.7V21.7
	C200,9.7,190.3,0,178.3,0z M172.2,107.1l-65.3,65.3c0,0,0,0,0,0c-3.8,3.8-9.9,3.8-13.7,0l-65.7-65.6c-3.8-3.8-3.8-9.9,0-13.7l45-45
	l17,17c0,0,0,0.1,0,0.1c-2.4,5.9,0.4,12.6,6.3,15v41.2c-2.6,1.1-4.7,3-6,5.5c-2.8,5.7-0.5,12.6,5.2,15.4c5.7,2.8,12.6,0.5,15.4-5.2
	c2.8-5.7,0.5-12.6-5.2-15.4V81l15.5,15.5c-1.1,2.6-1.2,5.5-0.2,8.1c2.1,6,8.6,9.2,14.6,7.1c6-2.1,9.2-8.6,7.1-14.6
	s-8.6-9.2-14.6-7.1L111,73.4c0.8-2.4,0.9-5,0-7.5c-2-6-8.6-9.2-14.6-7.2L79.2,41.5l13.6-13.7c0,0,0,0,0,0c3.8-3.8,9.9-3.8,13.7,0
	l65.7,65.6h0C175.9,97.3,175.9,103.4,172.2,107.1z"/>
</svg>
