<?xml version="1.0" encoding="iso-8859-1"?>
<!-- Generator: Adobe Illustrator 19.0.0, SVG Export Plug-In . SVG Version: 6.00 Build 0)  -->
<svg version="1.1" id="Capa_1" xmlns="http://www.w3.org/2000/svg" xmlns:xlink="http://www.w3.org/1999/xlink" x="0px" y="0px"
	 viewBox="0 0 512 512" style="enable-background:new 0 0 512 512;" xml:space="preserve">
<g>
	<g>
		<path d="M467,0H45C20.186,0,0,20.186,0,45v422c0,24.814,20.186,45,45,45h422c24.814,0,45-20.186,45-45V45
			C512,20.186,491.814,0,467,0z M181,376c0,8.291-6.709,15-15,15s-15-6.709-15-15V136c0-8.291,6.709-15,15-15s15,6.709,15,15V376z
			 M361,376c0,8.291-6.709,15-15,15c-5.061,0-9.313-2.662-12.028-6.497C323.549,388.625,312.486,391,301,391
			c-49.629,0-90-40.371-90-90c0-49.629,40.371-90,90-90c10.384,0,20.457,1.849,30,5.229V136c0-8.291,6.709-15,15-15
			c8.291,0,15,6.709,15,15V376z"/>
	</g>
</g>
<g>
	<g>
		<path d="M301,241c-33.091,0-60,26.909-60,60s26.909,60,60,60c10.789,0,20.848-3.464,30-8.846V249.846
			C321.848,244.465,311.789,241,301,241z"/>
	</g>
</g>
<g>
</g>
<g>
</g>
<g>
</g>
<g>
</g>
<g>
</g>
<g>
</g>
<g>
</g>
<g>
</g>
<g>
</g>
<g>
</g>
<g>
</g>
<g>
</g>
<g>
</g>
<g>
</g>
<g>
</g>
</svg>
