<?xml version="1.0" encoding="utf-8"?>
<!-- Generator: Adobe Illustrator 25.4.1, SVG Export Plug-In . SVG Version: 6.00 Build 0)  -->
<svg version="1.1" id="Capa_1" xmlns="http://www.w3.org/2000/svg" xmlns:xlink="http://www.w3.org/1999/xlink" x="0px" y="0px"
	 viewBox="0 0 175 200" style="enable-background:new 0 0 175 200;" xml:space="preserve">
<style type="text/css">
	.st0{fill:#FEFEFE;}
</style>
<g>
	<path d="M15.5,80.5c2-19.2,9.5-35.8,22.5-50.2C52.4,14.5,69.9,4.6,90.9,0.9c0.5-0.1,0.9-0.6,1.4-0.9c0.3,0,0.6,0,0.9,0
		c1.5,1.3,3,1.3,4.5,0c2.1,0,4.2,0,6.3,0c1.3,5-0.4,10.2,0.9,15.2l0.3,0.1c0.9,1.3,0.9,2.8,0.9,4.3c0,10.1,0.2,20.2-0.1,30.3
		c-0.1,0.5-0.2,1-0.4,1.5c-0.7,1.4-2.1,1.5-3.4,1.7c-18.1,2.2-29.7,11.9-33.8,29.9c-0.2,0.7-0.4,1.4-1,2c-1.6,1.7-1.2,5-4.5,5.2
		c-0.7,0.1-1.3,0.1-2,0c-1.3-0.4-2.7-0.5-4.1-0.9c-11.8-2.4-23.6-4.3-35.4-6.7C19.3,82.1,17.1,82.1,15.5,80.5z"/>
	<path d="M104.8,15.2c-2-4.9-0.4-10.1-0.9-15.2c0.3,0,0.6,0,0.9,0C104.7,5.1,104.8,10.1,104.8,15.2z"/>
	<path d="M97.6,0c-1.5,2.9-3,2.9-4.5,0C94.6,0,96.1,0,97.6,0z"/>
	<path d="M111.5,135.1c0,20.4,0,40.8,0.2,61.2c0,3.1-1.1,3.7-3.9,3.7c-46.7-0.8-89.4-33.3-103.2-78.5c-2.6-8.7-4.4-17.6-4.4-26.7
		c0.1-2.9,1.1-4.4,4.6-4.1c3.2,0.3,6.5,0.7,9.6-0.4l0.2-0.3c0.5,0,1.1,0,1.6-0.1c15.2,0.2,30.4-0.4,45.5,0.3c0.9,0,1.8-0.2,2.6-0.4
		c0.5-0.1,1-0.1,1.5,0c1.9,1.2,2,3.3,2.2,5.1c2.1,18.6,17.6,36.2,40.2,38.8c0.7,0.1,1.5,0.2,2.2,0.4
		C110.9,134.4,111.3,134.7,111.5,135.1z"/>
	<path d="M104.9,51.6c0-0.3,0.1-0.6,0.2-0.8c0.3-1.2-0.1-2.4,0.3-3.6c0.4-1,0.2-2.1,0.6-3.2c2.1-7.9,4.4-15.7,6.3-23.6
		c0.4-1.6,0.9-3.2,2.3-4.2c26.5,4.7,44.4,19.8,54.4,44.6c-0.3,1.6-0.3,3.1,1.2,4.2c1.6,3.5,2.2,7.2,2.4,11c-0.1,0.3-0.2,0.5-0.3,0.8
		c-0.7,2.4,1.7,5.4-0.7,7.1c-2,1.4-4.9,0.3-7.4,0.5c-1.2,0.1-2.4,0-3.6,0.1c-6.9,1.6-14,0.4-20.9,0.7c-0.5,0.1-1,0.1-1.4,0.1
		c-0.5-0.1-0.8-0.4-1.1-0.8c-0.8-5.2-1.8-10.4-4.3-15.2c-5-9.7-13.6-13.9-23.6-16.1C107.8,52.9,106,53.3,104.9,51.6z"/>
	<path d="M138,84.8c0.3,0,0.5,0.1,0.8,0.3c7.4,1.6,13.9,5.1,20.4,8.8c-3,13.6-9.9,24.7-21.3,32.7c-7.8,5.5-16.6,8.4-26.3,8.5
		c0,0-0.3,0-0.3,0l-0.2-0.2c-0.2-0.7,0-1.3,0.3-1.8c3.6-8.1,6.8-16.3,10.5-24.4c1-1.6,2.7-2.2,4.1-3.4c5.6-4.7,9.8-10.3,10.7-17.9
		C136.9,86.4,137,85.4,138,84.8z"/>
	<path d="M15.5,80.5c14,2.3,28.1,4.5,41.8,8c-2.4,2.1-5.5,0.7-8.1,1.6c-0.5,0-1.1,0-1.6-0.1c-8.4-0.4-16.9-0.1-25.3-0.2
		c-6.1-0.1-6.1,0-6.9-5.7C15.4,82.9,15.5,81.7,15.5,80.5z"/>
	<path d="M105.7,47.4c-0.2,1.1,0.3,2.4-0.6,3.4c-0.4-11.9-0.4-23.7,0-35.6c3.2,0.3,6.3,0.6,9.5,1c-2.6,9.5-4.5,19.2-8,28.5
		c-1-7.6-0.2-15.3-0.4-23c-0.1-1.5,0.2-3.1-0.3-4.6c-0.3-0.6-0.7,0.3-0.3,0c0.2-0.1,0.4-0.1,0.4,0.2
		C106.1,27.4,106.4,37.4,105.7,47.4z"/>
	<path d="M159.1,93.8c-7.2-2-13.7-5.5-20.4-8.8c-0.1-0.1-0.1-0.3-0.1-0.4c6.7-0.3,13.4-0.1,20.1-0.1c0.6-0.1,1,0.2,1.4,0.6
		C159.8,88.1,159.5,91,159.1,93.8z"/>
	<path d="M48.3,89.3c0.3,0,0.7,0,1,0c3.8-0.5,7.7-0.5,11.5,0c0.6,0,1.3,0,1.9,0c1.1-0.4,2.2-0.4,3.4-0.1c0.4,0.4,0.4,0.8,0.1,1.2
		c-0.3,0-0.6,0.1-0.9,0.1c-16.7,0.4-33.3,0.5-50-0.1c-0.3-0.1-0.5-0.3-0.8-0.4c0.2-0.2,0.4-0.5,0.6-0.7
		C26.2,88.8,37.3,88.8,48.3,89.3z"/>
	<path d="M48.3,89.3c-11,0-22.1,0-33.1,0c0.1-1.7,0.1-3.5,0.2-5.2c0.5,4,2.9,4.7,6.7,4.6c7.4-0.3,14.7-0.1,22.1-0.1
		C45.6,88.6,47.1,88.1,48.3,89.3z"/>
	<path d="M160.2,84.1c0.1,0,0.3,0,0.4,0c3.1,0,6.3,0.5,9.3-0.2c4.3-1,0.3-5.7,2.7-7.8c0.1,1.4,0.1,2.7,0.2,4.1
		c0.4,1.5,0.7,3.1-0.1,4.6c-4.2,0.2-8.3,0.3-12.5,0.5c0,0,0.1-0.4,0.1-0.4c-0.3-0.1-0.4-0.3-0.3-0.5C160,84.2,160.1,84.1,160.2,84.1
		z"/>
	<path d="M14.4,90.3c-2.7,1.9-5.7,0.9-8.5,0.8c-3-0.1-4.9,0.7-5.7,3.7c-0.9-3.5,0.2-5.1,4.1-4.7C7.6,90.4,11,90.2,14.4,90.3z"/>
	<path d="M170.2,65c-2.7-0.7-2.2-2.4-1.2-4.2C169.6,62.2,170.2,63.5,170.2,65z"/>
	<path d="M172.7,84.7c0-1.5,0.1-3.1,0.1-4.6C173.4,81.7,173.9,83.2,172.7,84.7z"/>
	<path class="st0" d="M66.2,90.4c0-0.3,0-0.6,0-0.9c-0.5-1.5-0.8-2.9,0.2-4.3c1.7-7.4,4-14.4,9.1-20.3c7.8-8.9,17.8-12.8,29.3-13.2
		c8.8,0.1,16.8,3.1,23,8.9c6.7,6.3,10.2,14.7,10.1,24.2c-0.3,11.2-6.4,18.6-15.4,24.3c-1.4,1.7-3.3,2.7-5.4,2.9
		c-3.3,0.3-4.1,2.2-4.1,5.1c0,5.7,0.7,11.5-1.4,17.1c-0.3,0.3-0.5,0.5-0.8,0.8c-23.1-0.4-41.6-18-44.5-42.3
		C66.4,91.8,66.3,91.1,66.2,90.4z"/>
	<path d="M60.9,89.3c-3.8,0-7.7,0-11.5,0c2.5-1.6,5.3-0.4,8-0.8C58.6,88.6,59.9,88.2,60.9,89.3z"/>
	<path d="M66.4,85.2c-0.1,1.4-0.1,2.9-0.2,4.3c-1.2-0.1-2.3-0.1-3.5-0.2c2.1-0.7,2.8-2.3,2.9-4.4c0,0,0.3-0.1,0.4,0
		C66.2,84.9,66.3,85.1,66.4,85.2z"/>
	<path d="M15.3,90.4c16.7,0,33.3,0,50,0.1c-1,1-2.2,0.7-3.4,0.7c-14.4,0-28.9,0-43.3,0C17.5,91.2,16.3,91.5,15.3,90.4z"/>
	<path d="M105.7,47.4c0-10.1,0-20.1,0-30.2c0.3,0,0.6,0,0.8,0c0,9.2,0,18.4,0,27.5C106.5,45.7,106.7,46.7,105.7,47.4z"/>
	<path d="M160.2,84.1c0,0.2,0,0.5,0,0.7c-7.2,0.3-14.4,0.5-21.6-0.1c2.2-1.8,4.6-0.4,7-0.5C150.5,83.9,155.3,84.1,160.2,84.1z"/>
	<path d="M111.8,134.1c0-6.5,0.1-13.1,0-19.6c0-2.3,0.4-3.8,3.1-3.6c2.8,0.2,5.1-1.4,7.7-1.9C119.3,117.5,115.8,126,111.8,134.1z"/>
</g>
</svg>
